<svg xmlns="http://www.w3.org/2000/svg" viewBox="0 0 1080 1080" fill="none">
  <path
    fill="#FF0000"
    fill-rule="evenodd"
    clip-rule="evenodd"
    d="M 412.0 1031.5 L 385.0 1023.5 L 363.0 1010.5 L 346.5 994.0 L 330.5 971.0 L 319.5 948.0 L 313.5 923.0 L 317.5 869.0 L 332.5 813.0 L 353.5 767.0 L 383.5 719.0 L 416.5 677.0 L 457.0 635.5 L 515.0 586.5 L 565.0 551.5 L 612.5 525.0 L 613.5 410.0 L 606.5 295.0 L 593.5 218.0 L 586.5 197.0 L 574.5 175.0 L 562.0 162.5 L 552.0 157.5 L 542.0 158.5 L 518.5 178.0 L 502.5 200.0 L 481.5 239.0 L 459.5 299.0 L 443.5 379.0 L 442.5 418.0 L 445.5 434.0 L 454.5 453.0 L 467.0 465.5 L 494.0 476.5 L 552.0 467.5 L 569.5 470.0 L 574.5 475.0 L 572.5 484.0 L 561.5 499.0 L 543.5 517.0 L 521.0 534.5 L 492.0 550.5 L 461.0 560.5 L 434.0 564.5 L 411.0 563.5 L 384.0 557.5 L 360.0 546.5 L 341.0 531.5 L 326.0 512.5 L 317.0 494.5 L 313.5 474.0 L 315.5 367.0 L 326.5 291.0 L 343.5 233.0 L 369.5 168.0 L 406.5 95.0 L 433.5 57.0 L 446.5 44.0 L 461.0 37.5 L 522.0 36.5 L 541.0 42.5 L 558.0 45.5 L 578.0 40.5 L 588.0 36.5 L 627.0 36.5 L 649.0 41.5 L 672.0 51.5 L 695.0 66.5 L 717.0 88.5 L 730.5 109.0 L 744.5 136.0 L 756.5 170.0 L 765.5 211.0 L 772.5 266.0 L 778.5 359.0 L 780.5 471.0 L 771.5 483.0 L 770.5 493.0 L 780.5 483.0 L 788.5 475.0 L 794.0 470.5 L 800.0 470.5 L 805.5 475.0 L 809.5 483.0 L 811.5 495.0 L 818.5 504.0 L 820.5 513.0 L 817.5 520.0 L 803.5 527.0 L 748.5 551.0 L 737.5 701.0 L 732.5 717.0 L 720.5 772.0 L 701.5 831.0 L 672.5 889.0 L 642.5 932.0 L 618.5 958.0 L 590.5 983.0 L 561.0 1004.5 L 527.0 1020.5 L 490.0 1030.5 L 449.0 1034.5 Z
       M 438.0 956.5 L 446.0 959.5 L 463.0 958.5 L 478.0 953.5 L 498.0 941.5 L 536.5 905.0 L 563.5 865.0 L 589.5 799.0 L 603.5 743.0 L 613.5 666.0 L 613.5 619.0 L 611.5 623.0 L 584.5 642.0 L 551.5 672.0 L 516.5 710.0 L 482.5 756.0 L 453.5 807.0 L 431.5 862.0 L 421.5 901.0 L 421.5 925.0 L 425.5 940.0 Z"
  />
</svg>
